<svg width="64" height="64" viewBox="0 0 64 64" fill="none" xmlns="http://www.w3.org/2000/svg">
<rect width="64" height="64" rx="16" fill="#28B58F" fill-opacity="0.23"/>
<g clip-path="url(#clip0_350_231)">
<path d="M44 16H38.1147L30.6667 23.448V30.2733C26.312 33.4933 20.5587 37.784 19.8387 38.5053C19.2585 39.0893 18.8732 39.8385 18.7355 40.6501C18.5977 41.4616 18.7143 42.296 19.0693 43.0387L16 46.1147L17.8853 48L20.952 44.9333C21.6949 45.2957 22.5326 45.4161 23.3474 45.2776C24.1623 45.1391 24.9132 44.7487 25.4947 44.1613C26.216 43.44 30.5067 37.688 33.7333 33.3333H40.5587L48 25.8853V20C48 18.9391 47.5786 17.9217 46.8284 17.1716C46.0783 16.4214 45.0609 16 44 16V16ZM23.6093 42.276C23.3558 42.5193 23.0181 42.6552 22.6667 42.6552C22.3153 42.6552 21.9775 42.5193 21.724 42.276C21.474 42.026 21.3336 41.6869 21.3336 41.3333C21.3336 40.9798 21.474 40.6407 21.724 40.3907C22.176 39.9427 25.724 37.2667 29.6547 34.3453C26.732 38.2747 24.056 41.8253 23.6093 42.276ZM45.3333 24.7813L39.448 30.6667H35.6947L37.016 28.8693L43.6093 22.276L41.724 20.3907L35.132 26.9827L33.3333 28.3053V24.552L39.2187 18.6667H44C44.3536 18.6667 44.6928 18.8071 44.9428 19.0572C45.1929 19.3072 45.3333 19.6464 45.3333 20V24.7813Z" fill="white"/>
</g>
<defs>
<clipPath id="clip0_350_231">
<rect width="32" height="32" fill="white" transform="translate(16 16)"/>
</clipPath>
</defs>
</svg>
