<svg width="64" height="64" viewBox="0 0 64 64" fill="none" xmlns="http://www.w3.org/2000/svg">
<rect width="64" height="64" rx="16" fill="#28B58F" fill-opacity="0.15"/>
<g clip-path="url(#clip0_350_256)">
<path d="M43.2 20H20.8L20.4 20.4C17.6 23.6 16 27.7333 16 32C16 39.3333 18.9333 45.3333 22.6667 45.3333C25.6 45.3333 27.0667 41.0667 27.7333 38.6667H36.2667C36.9333 41.0667 38.4 45.3333 41.3333 45.3333C45.0667 45.3333 48 39.3333 48 32C48 27.7333 46.4 23.6 43.6 20.4L43.2 20ZM41.3333 42.6667C40.5333 42.6667 39.2 39.8667 38.6667 37.0667L38.4 36H25.6L25.3333 37.0667C24.8 39.8667 23.4667 42.6667 22.6667 42.6667C21.3333 42.6667 18.6667 38.5333 18.6667 32C18.6667 28.6667 19.8667 25.3333 22 22.6667H42.1333C44.2667 25.3333 45.3333 28.6667 45.3333 32C45.3333 38.5333 42.6667 42.6667 41.3333 42.6667Z" fill="white"/>
<path d="M26.6671 25.334H24.0004V28.0007H21.3337V30.6673H24.0004V33.334H26.6671V30.6673H29.3337V28.0007H26.6671V25.334Z" fill="white"/>
<path d="M40.6663 29.334C41.7708 29.334 42.6663 28.4386 42.6663 27.334C42.6663 26.2294 41.7708 25.334 40.6663 25.334C39.5617 25.334 38.6663 26.2294 38.6663 27.334C38.6663 28.4386 39.5617 29.334 40.6663 29.334Z" fill="white"/>
<path d="M36.6663 33.334C37.7708 33.334 38.6663 32.4386 38.6663 31.334C38.6663 30.2294 37.7708 29.334 36.6663 29.334C35.5617 29.334 34.6663 30.2294 34.6663 31.334C34.6663 32.4386 35.5617 33.334 36.6663 33.334Z" fill="white"/>
</g>
<defs>
<clipPath id="clip0_350_256">
<rect width="32" height="32" fill="white" transform="translate(16 16)"/>
</clipPath>
</defs>
</svg>
