<svg width="48" height="48" viewBox="0 0 48 48" fill="none" xmlns="http://www.w3.org/2000/svg">
<rect width="48" height="48" rx="12" fill="white" fill-opacity="0.2"/>
<g clip-path="url(#clip0_386_143)">
<path d="M38.6907 19.7132C38.3008 19.358 37.8448 19.0832 37.3487 18.9044C36.8526 18.7256 36.3262 18.6463 35.7994 18.671C35.2726 18.6958 34.7559 18.8242 34.2788 19.0487C33.8017 19.2733 33.3735 19.5897 33.0187 19.9798L28.7293 24.6932C28.3565 24.0752 27.8305 23.5639 27.2021 23.2089C26.5738 22.8538 25.8644 22.667 25.1427 22.6665H12C10.9391 22.6665 9.92172 23.0879 9.17157 23.8381C8.42143 24.5882 8 25.6056 8 26.6665V35.9998C8 37.0607 8.42143 38.0781 9.17157 38.8283C9.92172 39.5784 10.9391 39.9998 12 39.9998H25.9307L38.98 25.3532C39.6806 24.5628 40.0429 23.5288 39.9887 22.474C39.9346 21.4192 39.4685 20.4277 38.6907 19.7132ZM36.9893 23.5798L24.736 37.3332H12C11.6464 37.3332 11.3072 37.1927 11.0572 36.9426C10.8071 36.6926 10.6667 36.3535 10.6667 35.9998V26.6665C10.6667 26.3129 10.8071 25.9737 11.0572 25.7237C11.3072 25.4736 11.6464 25.3332 12 25.3332H25.1427C25.5288 25.3315 25.9011 25.4766 26.1843 25.739C26.4675 26.0015 26.6404 26.3618 26.668 26.7469C26.6957 27.132 26.5759 27.5133 26.3331 27.8135C26.0902 28.1137 25.7424 28.3104 25.36 28.3638L18.4773 29.3465L18.856 31.9865L25.7373 31.0025C26.4921 30.8918 27.2026 30.578 27.7928 30.0947C28.383 29.6113 28.8307 28.9766 29.088 28.2585L34.9907 21.7732C35.1093 21.6417 35.253 21.5353 35.4132 21.4599C35.5735 21.3846 35.7471 21.342 35.924 21.3345C36.2807 21.3202 36.6289 21.4456 36.8947 21.6838C37.1557 21.9242 37.3118 22.2574 37.3295 22.6118C37.3472 22.9662 37.2251 23.3133 36.9893 23.5785V23.5798ZM21.8973 20.1998L22.6667 20.7452L23.436 20.1998C24.04 19.7732 29.3333 15.9225 29.3333 12.2665C29.3661 11.171 28.9636 10.1071 28.214 9.30753C27.4644 8.50795 26.4287 8.03778 25.3333 7.99984C24.356 7.98735 23.4078 8.33203 22.6667 8.96917C21.9255 8.33203 20.9773 7.98735 20 7.99984C18.9047 8.03778 17.8689 8.50795 17.1193 9.30753C16.3697 10.1071 15.9673 11.171 16 12.2665C16 15.9225 21.2933 19.7732 21.8973 20.1998ZM20 10.6665C20.1781 10.6547 20.3568 10.6811 20.5239 10.744C20.691 10.8068 20.8427 10.9046 20.969 11.0309C21.0952 11.1571 21.193 11.3089 21.2559 11.476C21.3187 11.6431 21.3451 11.8217 21.3333 11.9998H24C23.9882 11.8217 24.0146 11.6431 24.0775 11.476C24.1403 11.3089 24.2381 11.1571 24.3644 11.0309C24.4906 10.9046 24.6424 10.8068 24.8095 10.744C24.9766 10.6811 25.1552 10.6547 25.3333 10.6665C25.7209 10.7054 26.0777 10.8948 26.327 11.194C26.5763 11.4932 26.6983 11.8783 26.6667 12.2665C26.6667 13.6985 24.5333 15.9572 22.6667 17.4412C21.0133 16.1078 18.6667 13.8052 18.6667 12.2665C18.635 11.8783 18.757 11.4932 19.0063 11.194C19.2557 10.8948 19.6125 10.7054 20 10.6665Z" fill="white" fill-opacity="0.59"/>
</g>
<defs>
<clipPath id="clip0_386_143">
<rect width="32" height="32" fill="white" transform="translate(8 8)"/>
</clipPath>
</defs>
</svg>
