<svg width="48" height="48" viewBox="0 0 48 48" fill="none" xmlns="http://www.w3.org/2000/svg">
<rect width="48" height="48" rx="12" fill="white" fill-opacity="0.2"/>
<g clip-path="url(#clip0_386_332)">
<path d="M36.9811 29.8668C36.5333 28.5466 35.6836 27.3997 34.5512 26.5868C33.4188 25.7738 32.0604 25.3355 30.6664 25.3334H25.3331V23.8881C27.3109 23.5538 29.091 22.4886 30.3206 20.9037C31.5502 19.3189 32.1395 17.3299 31.9717 15.331C31.804 13.3321 30.8914 11.4692 29.4149 10.1114C27.9384 8.75357 26.0056 8 23.9997 8C21.9938 8 20.0611 8.75357 18.5846 10.1114C17.1081 11.4692 16.1955 13.3321 16.0278 15.331C15.86 17.3299 16.4493 19.3189 17.6789 20.9037C18.9084 22.4886 20.6885 23.5538 22.6664 23.8881V25.3334H17.3331C15.9391 25.3355 14.5806 25.7738 13.4482 26.5868C12.3158 27.3997 11.4662 28.5466 11.0184 29.8668C9.87452 30.4186 8.96512 31.3605 8.45379 32.5231C7.94247 33.6856 7.86279 34.9925 8.22909 36.2086C8.59539 37.4246 9.38362 38.4701 10.452 39.1568C11.5203 39.8435 12.7987 40.1264 14.0571 39.9547C15.3154 39.7829 16.4712 39.1677 17.3164 38.2198C18.1617 37.2719 18.6409 36.0535 18.6679 34.7837C18.6949 33.514 18.2679 32.2763 17.4637 31.2933C16.6596 30.3103 15.531 29.6465 14.2811 29.4214C14.6559 28.9769 15.1231 28.6195 15.6502 28.374C16.1773 28.1286 16.7516 28.001 17.3331 28.0001H22.6664V29.5028C21.4095 29.8273 20.3141 30.5991 19.5856 31.6735C18.857 32.7478 18.5453 34.051 18.7089 35.3388C18.8725 36.6265 19.5001 37.8104 20.4741 38.6685C21.4481 39.5267 22.7016 40.0001 23.9997 40.0001C25.2978 40.0001 26.5514 39.5267 27.5254 38.6685C28.4994 37.8104 29.127 36.6265 29.2906 35.3388C29.4541 34.051 29.1424 32.7478 28.4139 31.6735C27.6853 30.5991 26.5899 29.8273 25.3331 29.5028V28.0001H30.6664C31.2475 28.0005 31.8216 28.1275 32.3487 28.3722C32.8758 28.617 33.3432 28.9737 33.7184 29.4174C32.4685 29.6425 31.3399 30.3063 30.5357 31.2893C29.7315 32.2723 29.3046 33.51 29.3316 34.7797C29.3586 36.0495 29.8378 37.2679 30.683 38.2158C31.5283 39.1637 32.684 39.7789 33.9424 39.9507C35.2008 40.1224 36.4791 39.8395 37.5475 39.1528C38.6158 38.4661 39.4041 37.4206 39.7704 36.2046C40.1367 34.9885 40.057 33.6816 39.5457 32.5191C39.0343 31.3565 38.1249 30.4146 36.9811 29.8628V29.8668ZM18.6664 16.0001C18.6664 14.9453 18.9792 13.9141 19.5652 13.0371C20.1513 12.16 20.9842 11.4764 21.9588 11.0727C22.9333 10.6691 24.0056 10.5635 25.0402 10.7693C26.0748 10.975 27.0251 11.483 27.771 12.2289C28.5168 12.9748 29.0248 13.9251 29.2306 14.9596C29.4364 15.9942 29.3308 17.0665 28.9271 18.0411C28.5234 19.0156 27.8398 19.8486 26.9628 20.4346C26.0857 21.0206 25.0546 21.3334 23.9997 21.3334C22.5852 21.3334 21.2287 20.7715 20.2285 19.7713C19.2283 18.7711 18.6664 17.4146 18.6664 16.0001ZM15.9997 34.6668C15.9997 35.1942 15.8433 35.7098 15.5503 36.1483C15.2573 36.5868 14.8408 36.9286 14.3536 37.1305C13.8663 37.3323 13.3301 37.3851 12.8128 37.2822C12.2955 37.1793 11.8204 36.9253 11.4474 36.5524C11.0745 36.1795 10.8205 35.7043 10.7176 35.187C10.6147 34.6697 10.6675 34.1336 10.8694 33.6463C11.0712 33.159 11.413 32.7425 11.8515 32.4495C12.2901 32.1565 12.8056 32.0001 13.3331 32.0001C14.0403 32.0001 14.7186 32.2811 15.2187 32.7812C15.7188 33.2813 15.9997 33.9595 15.9997 34.6668ZM26.6664 34.6668C26.6664 35.1942 26.51 35.7098 26.217 36.1483C25.924 36.5868 25.5075 36.9286 25.0202 37.1305C24.5329 37.3323 23.9968 37.3851 23.4795 37.2822C22.9622 37.1793 22.4871 36.9253 22.1141 36.5524C21.7412 36.1795 21.4872 35.7043 21.3843 35.187C21.2814 34.6697 21.3342 34.1336 21.5361 33.6463C21.7379 33.159 22.0797 32.7425 22.5182 32.4495C22.9567 32.1565 23.4723 32.0001 23.9997 32.0001C24.707 32.0001 25.3853 32.2811 25.8853 32.7812C26.3854 33.2813 26.6664 33.9595 26.6664 34.6668ZM34.6664 37.3334C34.139 37.3334 33.6234 37.177 33.1849 36.884C32.7463 36.591 32.4046 36.1745 32.2027 35.6873C32.0009 35.2 31.9481 34.6638 32.051 34.1465C32.1539 33.6293 32.4078 33.1541 32.7808 32.7812C33.1537 32.4082 33.6289 32.1542 34.1462 32.0513C34.6634 31.9485 35.1996 32.0013 35.6869 32.2031C36.1742 32.4049 36.5906 32.7467 36.8836 33.1853C37.1767 33.6238 37.3331 34.1394 37.3331 34.6668C37.3331 35.374 37.0521 36.0523 36.552 36.5524C36.0519 37.0525 35.3736 37.3334 34.6664 37.3334Z" fill="white" fill-opacity="0.59"/>
</g>
<defs>
<clipPath id="clip0_386_332">
<rect width="32" height="32" fill="white" transform="translate(8 8)"/>
</clipPath>
</defs>
</svg>
