<svg width="48" height="48" viewBox="0 0 48 48" fill="none" xmlns="http://www.w3.org/2000/svg">
<rect width="48" height="48" rx="12" fill="white" fill-opacity="0.2"/>
<g clip-path="url(#clip0_386_547)">
<path d="M24 24C25.5823 24 27.129 23.5308 28.4446 22.6518C29.7602 21.7727 30.7855 20.5233 31.391 19.0615C31.9965 17.5997 32.155 15.9911 31.8463 14.4393C31.5376 12.8874 30.7757 11.462 29.6569 10.3431C28.538 9.22433 27.1126 8.4624 25.5607 8.15372C24.0089 7.84504 22.4003 8.00347 20.9385 8.60897C19.4767 9.21447 18.2273 10.2398 17.3482 11.5554C16.4692 12.871 16 14.4178 16 16C16.0021 18.1211 16.8457 20.1547 18.3455 21.6545C19.8453 23.1544 21.8789 23.9979 24 24ZM24 10.6667C25.0548 10.6667 26.086 10.9795 26.963 11.5655C27.8401 12.1515 28.5237 12.9845 28.9274 13.959C29.331 14.9336 29.4366 16.0059 29.2309 17.0405C29.0251 18.0751 28.5171 19.0254 27.7712 19.7712C27.0254 20.5171 26.075 21.0251 25.0405 21.2309C24.0059 21.4366 22.9336 21.331 21.959 20.9274C20.9845 20.5237 20.1515 19.8401 19.5655 18.963C18.9795 18.086 18.6667 17.0548 18.6667 16C18.6667 14.5855 19.2286 13.229 20.2288 12.2288C21.229 11.2286 22.5855 10.6667 24 10.6667Z" fill="white" fill-opacity="0.59"/>
<path d="M24 26.6675C20.8185 26.671 17.7683 27.9364 15.5186 30.1861C13.2689 32.4358 12.0035 35.486 12 38.6675C12 39.0211 12.1405 39.3602 12.3905 39.6103C12.6406 39.8603 12.9797 40.0008 13.3333 40.0008C13.687 40.0008 14.0261 39.8603 14.2761 39.6103C14.5262 39.3602 14.6667 39.0211 14.6667 38.6675C14.6667 36.1921 15.65 33.8182 17.4003 32.0678C19.1507 30.3175 21.5246 29.3341 24 29.3341C26.4754 29.3341 28.8493 30.3175 30.5997 32.0678C32.35 33.8182 33.3333 36.1921 33.3333 38.6675C33.3333 39.0211 33.4738 39.3602 33.7239 39.6103C33.9739 39.8603 34.313 40.0008 34.6667 40.0008C35.0203 40.0008 35.3594 39.8603 35.6095 39.6103C35.8595 39.3602 36 39.0211 36 38.6675C35.9965 35.486 34.7311 32.4358 32.4814 30.1861C30.2317 27.9364 27.1815 26.671 24 26.6675Z" fill="white" fill-opacity="0.59"/>
</g>
<defs>
<clipPath id="clip0_386_547">
<rect width="32" height="32" fill="white" transform="translate(8 8)"/>
</clipPath>
</defs>
</svg>
