<svg width="56" height="56" viewBox="0 0 56 56" fill="none" xmlns="http://www.w3.org/2000/svg">
<rect width="56" height="56" rx="16" fill="#28B58F" fill-opacity="0.1"/>
<g clip-path="url(#clip0_343_68)">
<path d="M37.3333 12H18.6667C16.8992 12.0021 15.2047 12.7052 13.955 13.955C12.7052 15.2047 12.0021 16.8992 12 18.6667L12 37.3333C12.0021 39.1008 12.7052 40.7953 13.955 42.045C15.2047 43.2948 16.8992 43.9979 18.6667 44H37.3333C39.1008 43.9979 40.7953 43.2948 42.045 42.045C43.2948 40.7953 43.9979 39.1008 44 37.3333V18.6667C43.9979 16.8992 43.2948 15.2047 42.045 13.955C40.7953 12.7052 39.1008 12.0021 37.3333 12V12ZM18.6667 14.6667H37.3333C38.3942 14.6667 39.4116 15.0881 40.1618 15.8382C40.9119 16.5884 41.3333 17.6058 41.3333 18.6667V37.3333C41.331 37.9273 41.1943 38.5131 40.9333 39.0467L28.716 26.8293C28.0969 26.2101 27.3619 25.7189 26.553 25.3837C25.744 25.0486 24.877 24.8761 24.0013 24.8761C23.1257 24.8761 22.2587 25.0486 21.4497 25.3837C20.6408 25.7189 19.9057 26.2101 19.2867 26.8293L14.6667 31.448V18.6667C14.6667 17.6058 15.0881 16.5884 15.8382 15.8382C16.5884 15.0881 17.6058 14.6667 18.6667 14.6667ZM18.6667 41.3333C17.6058 41.3333 16.5884 40.9119 15.8382 40.1618C15.0881 39.4116 14.6667 38.3942 14.6667 37.3333V35.2187L21.1707 28.7147C21.5421 28.343 21.9832 28.0481 22.4687 27.8469C22.9541 27.6457 23.4745 27.5422 24 27.5422C24.5255 27.5422 25.0459 27.6457 25.5313 27.8469C26.0168 28.0481 26.4579 28.343 26.8293 28.7147L39.0467 40.9333C38.5131 41.1943 37.9273 41.331 37.3333 41.3333H18.6667Z" fill="#374957"/>
<path d="M33.3334 25.9996C34.2564 25.9996 35.1586 25.7259 35.9261 25.2131C36.6935 24.7003 37.2916 23.9715 37.6449 23.1188C37.9981 22.2661 38.0905 21.3278 37.9104 20.4225C37.7303 19.5173 37.2859 18.6857 36.6332 18.0331C35.9806 17.3805 35.1491 16.936 34.2438 16.7559C33.3386 16.5759 32.4003 16.6683 31.5476 17.0215C30.6948 17.3747 29.966 17.9728 29.4532 18.7403C28.9404 19.5077 28.6667 20.4099 28.6667 21.3329C28.6667 22.5706 29.1584 23.7576 30.0336 24.6328C30.9088 25.5079 32.0957 25.9996 33.3334 25.9996ZM33.3334 19.3329C33.729 19.3329 34.1157 19.4502 34.4446 19.67C34.7735 19.8898 35.0298 20.2021 35.1812 20.5676C35.3325 20.933 35.3722 21.3351 35.295 21.7231C35.2178 22.1111 35.0273 22.4674 34.7476 22.7471C34.4679 23.0268 34.1116 23.2173 33.7236 23.2945C33.3356 23.3717 32.9335 23.3321 32.568 23.1807C32.2026 23.0293 31.8902 22.773 31.6705 22.4441C31.4507 22.1152 31.3334 21.7285 31.3334 21.3329C31.3334 20.8025 31.5441 20.2938 31.9192 19.9187C32.2943 19.5436 32.803 19.3329 33.3334 19.3329Z" fill="#374957"/>
</g>
<defs>
<clipPath id="clip0_343_68">
<rect width="32" height="32" fill="white" transform="translate(12 12)"/>
</clipPath>
</defs>
</svg>
