<svg width="56" height="56" viewBox="0 0 56 56" fill="none" xmlns="http://www.w3.org/2000/svg">
<rect width="56" height="56" rx="16" fill="#28B58F" fill-opacity="0.1"/>
<g clip-path="url(#clip0_343_37)">
<path d="M37.3333 14.6667H36V13.3333C36 12.9797 35.8595 12.6406 35.6095 12.3905C35.3594 12.1405 35.0203 12 34.6667 12C34.313 12 33.9739 12.1405 33.7239 12.3905C33.4738 12.6406 33.3333 12.9797 33.3333 13.3333V14.6667H22.6667V13.3333C22.6667 12.9797 22.5262 12.6406 22.2761 12.3905C22.0261 12.1405 21.687 12 21.3333 12C20.9797 12 20.6406 12.1405 20.3905 12.3905C20.1405 12.6406 20 12.9797 20 13.3333V14.6667H18.6667C16.8992 14.6688 15.2047 15.3718 13.955 16.6216C12.7052 17.8714 12.0021 19.5659 12 21.3333L12 37.3333C12.0021 39.1008 12.7052 40.7953 13.955 42.045C15.2047 43.2948 16.8992 43.9979 18.6667 44H37.3333C39.1008 43.9979 40.7953 43.2948 42.045 42.045C43.2948 40.7953 43.9979 39.1008 44 37.3333V21.3333C43.9979 19.5659 43.2948 17.8714 42.045 16.6216C40.7953 15.3718 39.1008 14.6688 37.3333 14.6667ZM14.6667 21.3333C14.6667 20.2725 15.0881 19.2551 15.8382 18.5049C16.5884 17.7548 17.6058 17.3333 18.6667 17.3333H37.3333C38.3942 17.3333 39.4116 17.7548 40.1618 18.5049C40.9119 19.2551 41.3333 20.2725 41.3333 21.3333V22.6667H14.6667V21.3333ZM37.3333 41.3333H18.6667C17.6058 41.3333 16.5884 40.9119 15.8382 40.1618C15.0881 39.4116 14.6667 38.3942 14.6667 37.3333V25.3333H41.3333V37.3333C41.3333 38.3942 40.9119 39.4116 40.1618 40.1618C39.4116 40.9119 38.3942 41.3333 37.3333 41.3333Z" fill="#374957"/>
<path d="M28 34C29.1046 34 30 33.1046 30 32C30 30.8954 29.1046 30 28 30C26.8954 30 26 30.8954 26 32C26 33.1046 26.8954 34 28 34Z" fill="#374957"/>
<path d="M21.333 34C22.4376 34 23.333 33.1046 23.333 32C23.333 30.8954 22.4376 30 21.333 30C20.2284 30 19.333 30.8954 19.333 32C19.333 33.1046 20.2284 34 21.333 34Z" fill="#374957"/>
<path d="M34.6667 34C35.7713 34 36.6667 33.1046 36.6667 32C36.6667 30.8954 35.7713 30 34.6667 30C33.5622 30 32.6667 30.8954 32.6667 32C32.6667 33.1046 33.5622 34 34.6667 34Z" fill="#374957"/>
</g>
<defs>
<clipPath id="clip0_343_37">
<rect width="32" height="32" fill="white" transform="translate(12 12)"/>
</clipPath>
</defs>
</svg>
