<svg width="56" height="56" viewBox="0 0 56 56" fill="none" xmlns="http://www.w3.org/2000/svg">
<rect width="56" height="56" rx="16" fill="#28B58F" fill-opacity="0.1"/>
<g clip-path="url(#clip0_343_217)">
<path d="M34.6667 30.6667C34.6667 31.0203 34.5263 31.3595 34.2762 31.6095C34.0262 31.8596 33.687 32 33.3334 32H22.6667C22.3131 32 21.974 31.8596 21.7239 31.6095C21.4739 31.3595 21.3334 31.0203 21.3334 30.6667C21.3334 30.3131 21.4739 29.9739 21.7239 29.7239C21.974 29.4738 22.3131 29.3334 22.6667 29.3334H33.3334C33.687 29.3334 34.0262 29.4738 34.2762 29.7239C34.5263 29.9739 34.6667 30.3131 34.6667 30.6667ZM29.3334 34.6667H22.6667C22.3131 34.6667 21.974 34.8072 21.7239 35.0572C21.4739 35.3073 21.3334 35.6464 21.3334 36C21.3334 36.3537 21.4739 36.6928 21.7239 36.9428C21.974 37.1929 22.3131 37.3334 22.6667 37.3334H29.3334C29.687 37.3334 30.0262 37.1929 30.2762 36.9428C30.5263 36.6928 30.6667 36.3537 30.6667 36C30.6667 35.6464 30.5263 35.3073 30.2762 35.0572C30.0262 34.8072 29.687 34.6667 29.3334 34.6667ZM41.3334 25.98V37.3334C41.3313 39.1008 40.6282 40.7953 39.3785 42.0451C38.1287 43.2949 36.4342 43.9979 34.6667 44H21.3334C19.566 43.9979 17.8715 43.2949 16.6217 42.0451C15.3719 40.7953 14.6689 39.1008 14.6667 37.3334V18.6667C14.6689 16.8992 15.3719 15.2048 16.6217 13.955C17.8715 12.7052 19.566 12.0021 21.3334 12H27.3534C28.5796 11.9969 29.7942 12.2368 30.927 12.706C32.0599 13.1751 33.0885 13.8642 33.9534 14.7334L38.5987 19.3814C39.4684 20.2457 40.1579 21.274 40.6273 22.4067C41.0967 23.5394 41.3367 24.7539 41.3334 25.98ZM32.0681 16.6187C31.6485 16.2122 31.1773 15.8626 30.6667 15.5787V21.3334C30.6667 21.687 30.8072 22.0261 31.0573 22.2762C31.3073 22.5262 31.6465 22.6667 32.0001 22.6667H37.7547C37.4707 22.1563 37.1206 21.6856 36.7134 21.2667L32.0681 16.6187ZM38.6667 25.98C38.6667 25.76 38.6241 25.5494 38.6041 25.3334H32.0001C30.9392 25.3334 29.9218 24.9119 29.1717 24.1618C28.4215 23.4116 28.0001 22.3942 28.0001 21.3334V14.7294C27.7841 14.7094 27.5721 14.6667 27.3534 14.6667H21.3334C20.2725 14.6667 19.2551 15.0881 18.505 15.8383C17.7548 16.5884 17.3334 17.6058 17.3334 18.6667V37.3334C17.3334 38.3942 17.7548 39.4116 18.505 40.1618C19.2551 40.9119 20.2725 41.3334 21.3334 41.3334H34.6667C35.7276 41.3334 36.745 40.9119 37.4952 40.1618C38.2453 39.4116 38.6667 38.3942 38.6667 37.3334V25.98Z" fill="#374957"/>
</g>
<defs>
<clipPath id="clip0_343_217">
<rect width="32" height="32" fill="white" transform="translate(12 12)"/>
</clipPath>
</defs>
</svg>
