<svg width="56" height="56" viewBox="0 0 56 56" fill="none" xmlns="http://www.w3.org/2000/svg">
<rect width="56" height="56" rx="16" fill="#28B58F" fill-opacity="0.1"/>
<path d="M37.3333 13.333H18.6667C16.8992 13.3351 15.2047 14.0382 13.955 15.288C12.7052 16.5378 12.0021 18.2322 12 19.9997V30.6663C12.0021 32.4338 12.7052 34.1283 13.955 35.378C15.2047 36.6278 16.8992 37.3309 18.6667 37.333H26.6667V39.9997H21.3333C20.9797 39.9997 20.6406 40.1402 20.3905 40.3902C20.1405 40.6402 20 40.9794 20 41.333C20 41.6866 20.1405 42.0258 20.3905 42.2758C20.6406 42.5259 20.9797 42.6663 21.3333 42.6663H34.6667C35.0203 42.6663 35.3594 42.5259 35.6095 42.2758C35.8595 42.0258 36 41.6866 36 41.333C36 40.9794 35.8595 40.6402 35.6095 40.3902C35.3594 40.1402 35.0203 39.9997 34.6667 39.9997H29.3333V37.333H37.3333C39.1008 37.3309 40.7953 36.6278 42.045 35.378C43.2948 34.1283 43.9979 32.4338 44 30.6663V19.9997C43.9979 18.2322 43.2948 16.5378 42.045 15.288C40.7953 14.0382 39.1008 13.3351 37.3333 13.333ZM18.6667 15.9997H37.3333C38.3942 15.9997 39.4116 16.4211 40.1618 17.1712C40.9119 17.9214 41.3333 18.9388 41.3333 19.9997V29.333H14.6667V19.9997C14.6667 18.9388 15.0881 17.9214 15.8382 17.1712C16.5884 16.4211 17.6058 15.9997 18.6667 15.9997ZM37.3333 34.6663H18.6667C17.8423 34.6629 17.0392 34.4049 16.3671 33.9276C15.695 33.4502 15.1868 32.7769 14.912 31.9997H41.088C40.8132 32.7769 40.305 33.4502 39.6329 33.9276C38.9608 34.4049 38.1577 34.6629 37.3333 34.6663Z" fill="#374957"/>
</svg>
