<svg width="56" height="56" viewBox="0 0 56 56" fill="none" xmlns="http://www.w3.org/2000/svg">
<rect width="56" height="56" rx="16" fill="#28B58F" fill-opacity="0.1"/>
<g clip-path="url(#clip0_200_155)">
<path d="M42.6667 41.3333H18.6667C17.6058 41.3333 16.5884 40.9119 15.8382 40.1618C15.0881 39.4116 14.6667 38.3942 14.6667 37.3333V13.3333C14.6667 12.9797 14.5262 12.6406 14.2761 12.3905C14.0261 12.1405 13.687 12 13.3333 12C12.9797 12 12.6406 12.1405 12.3905 12.3905C12.1405 12.6406 12 12.9797 12 13.3333V37.3333C12.0021 39.1008 12.7052 40.7953 13.955 42.045C15.2047 43.2948 16.8992 43.9979 18.6667 44H42.6667C43.0203 44 43.3594 43.8595 43.6095 43.6095C43.8595 43.3594 44 43.0203 44 42.6667C44 42.313 43.8595 41.9739 43.6095 41.7239C43.3594 41.4738 43.0203 41.3333 42.6667 41.3333Z" fill="#374957"/>
<path d="M20.0003 38.6665C20.3539 38.6665 20.6931 38.526 20.9431 38.276C21.1932 38.0259 21.3337 37.6868 21.3337 37.3332V27.9998C21.3337 27.6462 21.1932 27.3071 20.9431 27.057C20.6931 26.807 20.3539 26.6665 20.0003 26.6665C19.6467 26.6665 19.3076 26.807 19.0575 27.057C18.8075 27.3071 18.667 27.6462 18.667 27.9998V37.3332C18.667 37.6868 18.8075 38.0259 19.0575 38.276C19.3076 38.526 19.6467 38.6665 20.0003 38.6665Z" fill="#374957"/>
<path d="M25.333 25.3333V37.3333C25.333 37.6869 25.4735 38.0261 25.7235 38.2761C25.9736 38.5262 26.3127 38.6666 26.6663 38.6666C27.02 38.6666 27.3591 38.5262 27.6092 38.2761C27.8592 38.0261 27.9997 37.6869 27.9997 37.3333V25.3333C27.9997 24.9797 27.8592 24.6406 27.6092 24.3905C27.3591 24.1405 27.02 24 26.6663 24C26.3127 24 25.9736 24.1405 25.7235 24.3905C25.4735 24.6406 25.333 24.9797 25.333 25.3333Z" fill="#374957"/>
<path d="M32 29.3333V37.3333C32 37.6869 32.1405 38.0261 32.3905 38.2761C32.6406 38.5262 32.9797 38.6666 33.3333 38.6666C33.687 38.6666 34.0261 38.5262 34.2762 38.2761C34.5262 38.0261 34.6667 37.6869 34.6667 37.3333V29.3333C34.6667 28.9797 34.5262 28.6406 34.2762 28.3905C34.0261 28.1405 33.687 28 33.3333 28C32.9797 28 32.6406 28.1405 32.3905 28.3905C32.1405 28.6406 32 28.9797 32 29.3333Z" fill="#374957"/>
<path d="M38.667 23.9998V37.3332C38.667 37.6868 38.8075 38.0259 39.0575 38.276C39.3076 38.526 39.6467 38.6665 40.0003 38.6665C40.354 38.6665 40.6931 38.526 40.9431 38.276C41.1932 38.0259 41.3337 37.6868 41.3337 37.3332V23.9998C41.3337 23.6462 41.1932 23.3071 40.9431 23.057C40.6931 22.807 40.354 22.6665 40.0003 22.6665C39.6467 22.6665 39.3076 22.807 39.0575 23.057C38.8075 23.3071 38.667 23.6462 38.667 23.9998Z" fill="#374957"/>
<path d="M19.9996 24C20.3531 23.9999 20.6922 23.8594 20.9422 23.6093L25.7236 18.828C25.9777 18.5859 26.3152 18.4508 26.6662 18.4508C27.0172 18.4508 27.3548 18.5859 27.6089 18.828L30.5049 21.724C31.255 22.4739 32.2722 22.8951 33.3329 22.8951C34.3935 22.8951 35.4108 22.4739 36.1609 21.724L43.6089 14.276C43.8518 14.0245 43.9862 13.6877 43.9831 13.3381C43.9801 12.9885 43.8399 12.6541 43.5926 12.4069C43.3454 12.1597 43.011 12.0194 42.6614 12.0164C42.3118 12.0134 41.975 12.1478 41.7236 12.3906L34.2756 19.8373C34.0255 20.0873 33.6864 20.2277 33.3329 20.2277C32.9793 20.2277 32.6403 20.0873 32.3902 19.8373L29.4942 16.9426C28.7441 16.1928 27.7269 15.7715 26.6662 15.7715C25.6056 15.7715 24.5883 16.1928 23.8382 16.9426L19.0569 21.724C18.8705 21.9104 18.7435 22.148 18.6921 22.4066C18.6407 22.6652 18.6671 22.9332 18.768 23.1768C18.8689 23.4204 19.0397 23.6287 19.2589 23.7752C19.4782 23.9217 19.7359 23.9999 19.9996 24Z" fill="#374957"/>
</g>
<defs>
<clipPath id="clip0_200_155">
<rect width="32" height="32" fill="white" transform="translate(12 12)"/>
</clipPath>
</defs>
</svg>
