<svg width="56" height="56" viewBox="0 0 56 56" fill="none" xmlns="http://www.w3.org/2000/svg">
<rect width="56" height="56" rx="16" fill="#28B58F" fill-opacity="0.1"/>
<g clip-path="url(#clip0_343_53)">
<path d="M38.125 19H35.3035L31.8318 14.5H24.1671L20.6965 19H17.875C16.9799 19 16.1214 19.3556 15.4885 19.9885C14.8556 20.6214 14.5 21.4799 14.5 22.375V41.5H41.5V22.375C41.5 21.4799 41.1444 20.6214 40.5115 19.9885C39.8786 19.3556 39.0201 19 38.125 19ZM25.2741 16.75H30.727L32.4618 19H23.5382L25.2741 16.75ZM39.25 39.25H16.75V22.375C16.75 22.0766 16.8685 21.7905 17.0795 21.5795C17.2905 21.3685 17.5766 21.25 17.875 21.25H38.125C38.4234 21.25 38.7095 21.3685 38.9205 21.5795C39.1315 21.7905 39.25 22.0766 39.25 22.375V39.25Z" fill="#374957"/>
<path d="M28 23.5C26.665 23.5 25.3599 23.8959 24.2499 24.6376C23.1399 25.3793 22.2747 26.4335 21.7638 27.6669C21.2529 28.9003 21.1193 30.2575 21.3797 31.5669C21.6402 32.8762 22.283 34.079 23.227 35.023C24.171 35.967 25.3738 36.6099 26.6831 36.8703C27.9925 37.1308 29.3497 36.9971 30.5831 36.4862C31.8165 35.9753 32.8707 35.1101 33.6124 34.0001C34.3541 32.8901 34.75 31.585 34.75 30.25C34.7482 28.4603 34.0365 26.7445 32.771 25.479C31.5055 24.2135 29.7897 23.5018 28 23.5ZM28 34.75C27.11 34.75 26.24 34.4861 25.4999 33.9916C24.7599 33.4971 24.1831 32.7943 23.8425 31.9721C23.502 31.1498 23.4128 30.245 23.5865 29.3721C23.7601 28.4992 24.1887 27.6974 24.818 27.068C25.4474 26.4387 26.2492 26.0101 27.1221 25.8365C27.995 25.6628 28.8998 25.7519 29.7221 26.0925C30.5443 26.4331 31.2471 27.0099 31.7416 27.7499C32.2361 28.49 32.5 29.36 32.5 30.25C32.5 31.4435 32.0259 32.5881 31.182 33.432C30.3381 34.2759 29.1935 34.75 28 34.75Z" fill="#374957"/>
</g>
<defs>
<clipPath id="clip0_343_53">
<rect width="27" height="27" fill="white" transform="translate(14.5 14.5)"/>
</clipPath>
</defs>
</svg>
