<svg width="48" height="48" viewBox="0 0 48 48" fill="none" xmlns="http://www.w3.org/2000/svg">
<rect width="48" height="48" rx="12" fill="white" fill-opacity="0.2"/>
<g clip-path="url(#clip0_386_124)">
<path d="M38.6663 22.6675H35.9997V20.0008C35.9997 19.6472 35.8592 19.3081 35.6091 19.058C35.3591 18.808 35.02 18.6675 34.6663 18.6675C34.3127 18.6675 33.9736 18.808 33.7235 19.058C33.4735 19.3081 33.333 19.6472 33.333 20.0008V22.6675H30.6663C30.3127 22.6675 29.9736 22.8079 29.7235 23.058C29.4735 23.308 29.333 23.6472 29.333 24.0008C29.333 24.3544 29.4735 24.6936 29.7235 24.9436C29.9736 25.1937 30.3127 25.3341 30.6663 25.3341H33.333V28.0008C33.333 28.3544 33.4735 28.6936 33.7235 28.9436C33.9736 29.1937 34.3127 29.3341 34.6663 29.3341C35.02 29.3341 35.3591 29.1937 35.6091 28.9436C35.8592 28.6936 35.9997 28.3544 35.9997 28.0008V25.3341H38.6663C39.0199 25.3341 39.3591 25.1937 39.6091 24.9436C39.8592 24.6936 39.9997 24.3544 39.9997 24.0008C39.9997 23.6472 39.8592 23.308 39.6091 23.058C39.3591 22.8079 39.0199 22.6675 38.6663 22.6675Z" fill="white" fill-opacity="0.59"/>
<path d="M20 24C21.5823 24 23.129 23.5308 24.4446 22.6518C25.7602 21.7727 26.7855 20.5233 27.391 19.0615C27.9965 17.5997 28.155 15.9911 27.8463 14.4393C27.5376 12.8874 26.7757 11.462 25.6569 10.3431C24.538 9.22433 23.1126 8.4624 21.5607 8.15372C20.0089 7.84504 18.4003 8.00347 16.9385 8.60897C15.4767 9.21447 14.2273 10.2398 13.3482 11.5554C12.4692 12.871 12 14.4178 12 16C12.0021 18.1211 12.8457 20.1547 14.3455 21.6545C15.8453 23.1544 17.8789 23.9979 20 24ZM20 10.6667C21.0548 10.6667 22.086 10.9795 22.963 11.5655C23.8401 12.1515 24.5237 12.9845 24.9274 13.959C25.331 14.9336 25.4366 16.0059 25.2309 17.0405C25.0251 18.0751 24.5171 19.0254 23.7712 19.7712C23.0254 20.5171 22.075 21.0251 21.0405 21.2309C20.0059 21.4366 18.9336 21.331 17.959 20.9274C16.9845 20.5237 16.1515 19.8401 15.5655 18.963C14.9795 18.086 14.6667 17.0548 14.6667 16C14.6667 14.5855 15.2286 13.229 16.2288 12.2288C17.229 11.2286 18.5855 10.6667 20 10.6667Z" fill="white" fill-opacity="0.59"/>
<path d="M20 26.6675C16.8185 26.671 13.7683 27.9364 11.5186 30.1861C9.26894 32.4358 8.00353 35.486 8 38.6675C8 39.0211 8.14048 39.3602 8.39052 39.6103C8.64057 39.8603 8.97971 40.0008 9.33333 40.0008C9.68696 40.0008 10.0261 39.8603 10.2761 39.6103C10.5262 39.3602 10.6667 39.0211 10.6667 38.6675C10.6667 36.1921 11.65 33.8182 13.4003 32.0678C15.1507 30.3175 17.5246 29.3341 20 29.3341C22.4754 29.3341 24.8493 30.3175 26.5997 32.0678C28.35 33.8182 29.3333 36.1921 29.3333 38.6675C29.3333 39.0211 29.4738 39.3602 29.7239 39.6103C29.9739 39.8603 30.313 40.0008 30.6667 40.0008C31.0203 40.0008 31.3594 39.8603 31.6095 39.6103C31.8595 39.3602 32 39.0211 32 38.6675C31.9965 35.486 30.7311 32.4358 28.4814 30.1861C26.2317 27.9364 23.1815 26.671 20 26.6675Z" fill="white" fill-opacity="0.59"/>
</g>
<defs>
<clipPath id="clip0_386_124">
<rect width="32" height="32" fill="white" transform="translate(8 8)"/>
</clipPath>
</defs>
</svg>
