<svg width="64" height="64" viewBox="0 0 64 64" fill="none" xmlns="http://www.w3.org/2000/svg">
<rect width="64" height="64" rx="16" fill="#28B58F" fill-opacity="0.15"/>
<g clip-path="url(#clip0_350_524)">
<path d="M18.6667 30.6667H33.3333C34.0406 30.6667 34.7189 30.3857 35.219 29.8856C35.719 29.3855 36 28.7072 36 28V18.6667C36 17.9594 35.719 17.2811 35.219 16.781C34.7189 16.281 34.0406 16 33.3333 16H18.6667C17.9594 16 17.2811 16.281 16.781 16.781C16.281 17.2811 16 17.9594 16 18.6667V28C16 28.7072 16.281 29.3855 16.781 29.8856C17.2811 30.3857 17.9594 30.6667 18.6667 30.6667ZM18.6667 18.6667H33.3333V28H18.6667V18.6667Z" fill="white"/>
<path d="M45.3337 16H41.3337C40.6264 16 39.9481 16.281 39.448 16.781C38.9479 17.2811 38.667 17.9594 38.667 18.6667V28C38.667 28.7072 38.9479 29.3855 39.448 29.8856C39.9481 30.3857 40.6264 30.6667 41.3337 30.6667H45.3337C46.0409 30.6667 46.7192 30.3857 47.2193 29.8856C47.7194 29.3855 48.0003 28.7072 48.0003 28V18.6667C48.0003 17.9594 47.7194 17.2811 47.2193 16.781C46.7192 16.281 46.0409 16 45.3337 16V16ZM45.3337 28H41.3337V18.6667H45.3337V28Z" fill="white"/>
<path d="M22.6667 33.334H18.6667C17.9594 33.334 17.2811 33.6149 16.781 34.115C16.281 34.6151 16 35.2934 16 36.0006V45.334C16 46.0412 16.281 46.7195 16.781 47.2196C17.2811 47.7197 17.9594 48.0006 18.6667 48.0006H22.6667C23.3739 48.0006 24.0522 47.7197 24.5523 47.2196C25.0524 46.7195 25.3333 46.0412 25.3333 45.334V36.0006C25.3333 35.2934 25.0524 34.6151 24.5523 34.115C24.0522 33.6149 23.3739 33.334 22.6667 33.334ZM22.6667 45.334H18.6667V36.0006H22.6667V45.334Z" fill="white"/>
<path d="M45.3333 33.334H30.6667C29.9594 33.334 29.2811 33.6149 28.781 34.115C28.281 34.6151 28 35.2934 28 36.0006V45.334C28 46.0412 28.281 46.7195 28.781 47.2196C29.2811 47.7197 29.9594 48.0006 30.6667 48.0006H45.3333C46.0406 48.0006 46.7189 47.7197 47.219 47.2196C47.719 46.7195 48 46.0412 48 45.334V36.0006C48 35.2934 47.719 34.6151 47.219 34.115C46.7189 33.6149 46.0406 33.334 45.3333 33.334ZM45.3333 45.334H30.6667V36.0006H45.3333V45.334Z" fill="white"/>
</g>
<defs>
<clipPath id="clip0_350_524">
<rect width="32" height="32" fill="white" transform="translate(16 16)"/>
</clipPath>
</defs>
</svg>
