<svg width="48" height="48" viewBox="0 0 48 48" fill="none" xmlns="http://www.w3.org/2000/svg">
<rect width="48" height="48" rx="12" fill="white" fill-opacity="0.2"/>
<g clip-path="url(#clip0_386_17)">
<path d="M36 13.3333H32V10.6667C32 9.95942 31.719 9.28115 31.219 8.78105C30.7189 8.28095 30.0406 8 29.3333 8H18.6667C17.9594 8 17.2811 8.28095 16.781 8.78105C16.281 9.28115 16 9.95942 16 10.6667V13.3333H12C10.9391 13.3333 9.92172 13.7548 9.17157 14.5049C8.42143 15.2551 8 16.2725 8 17.3333V40H40V17.3333C40 16.2725 39.5786 15.2551 38.8284 14.5049C38.0783 13.7548 37.0609 13.3333 36 13.3333ZM18.6667 10.6667H29.3333V13.3333H18.6667V10.6667ZM12 16H36C36.3536 16 36.6928 16.1405 36.9428 16.3905C37.1929 16.6406 37.3333 16.9797 37.3333 17.3333V24H10.6667V17.3333C10.6667 16.9797 10.8071 16.6406 11.0572 16.3905C11.3072 16.1405 11.6464 16 12 16ZM10.6667 37.3333V26.6667H22.6667V29.3333H25.3333V26.6667H37.3333V37.3333H10.6667Z" fill="white" fill-opacity="0.59"/>
</g>
<defs>
<clipPath id="clip0_386_17">
<rect width="32" height="32" fill="white" transform="translate(8 8)"/>
</clipPath>
</defs>
</svg>
